<svg width="50" height="48" viewBox="0 0 50 48" fill="none" xmlns="http://www.w3.org/2000/svg">
<path d="M35.2182 39.6528C30.1883 39.7021 25.9236 37.8529 23.208 34.4454C19.8143 30.1872 19.239 23.9466 21.5903 16.8752C21.6933 16.567 21.5138 16.2489 21.213 16.1404C13.4542 13.3123 6.99128 15.8643 2.5287 23.5226C2.46272 23.636 2.43633 23.7691 2.45744 23.9047C4.38657 35.1604 15.1617 43.4795 24.5988 47.5108C24.6015 47.5108 24.6041 47.5108 24.6067 47.5133C24.7756 47.5823 24.9683 47.5774 25.1134 47.5182C28.7526 46.0882 32.6056 43.5929 35.6827 40.6711C36.0812 40.2914 35.7883 39.6479 35.2182 39.6528ZM3.75584 23.9171C7.78562 17.1267 13.2721 14.809 20.0755 17.0256C16.9351 22.7878 15.5338 27.8177 15.795 32.389C15.795 32.389 15.795 32.389 15.795 32.3915C16.0484 36.8395 17.9327 40.8955 21.5323 44.7025C13.4912 40.4246 5.44481 33.2101 3.75584 23.9171ZM24.9867 46.2583C19.8882 41.9163 17.3653 37.4806 17.0723 32.3274C17.0723 32.3274 17.0723 32.3274 17.0723 32.3249C16.8929 29.1714 17.5579 25.7688 19.0885 22.016C18.9038 23.4437 18.8431 24.8244 18.917 26.146C19.1149 29.6201 20.2101 32.6923 22.1788 35.1629C24.8627 38.5285 28.9083 40.5035 33.6902 40.8092C31.0459 43.0998 27.953 45.0353 24.9867 46.2583Z" fill="#22B573"/>
<path d="M13.2774 13.0781C18.9196 12.4617 24.992 15.1147 30.373 20.5539C30.3756 20.5564 30.3783 20.5564 30.3809 20.5589C30.6131 20.7857 30.9879 20.8054 31.2439 20.6131C35.1997 17.6543 37.0866 14.126 36.8597 10.1242C36.7119 7.54024 35.6642 4.74173 33.743 1.80268C33.6691 1.68926 33.5583 1.60297 33.4237 1.55612C22.0258 -2.50973 8.92831 2.04925 0.472894 7.67092C0.333026 7.76215 0.232743 7.91502 0.208992 8.08269C0.000509708 9.62618 -0.0496318 11.293 0.0480119 13.0041C0.182602 15.3489 0.596928 17.7727 1.27252 20.0583C1.42294 20.5712 2.16714 20.6575 2.44688 20.1915C4.917 16.0985 8.76205 13.5712 13.2774 13.0781ZM32.7639 2.60402C34.5004 5.30637 35.4478 7.85585 35.5824 10.1908C35.7777 13.5959 34.2339 16.6434 30.9932 19.2545C23.5696 8.57828 15.2989 4.56421 4.61615 6.59343C12.5992 2.22677 23.3057 -0.675291 32.7639 2.60402ZM2.13812 18.3792C1.33585 15.0925 1.08779 11.6234 1.43878 8.61033C11.7151 5.56033 19.7351 7.82379 26.8288 15.9333C22.3688 12.8143 17.6397 11.394 13.127 11.8872C8.66705 12.3778 4.81408 14.666 2.13812 18.3792Z" fill="#22B573"/>
<path d="M49.6035 9.83329C49.5428 8.77799 49.461 8.06049 49.461 8.06049C49.4425 7.90022 49.3423 7.73996 49.2129 7.64873C46.0672 5.41732 41.8263 3.54836 37.5828 2.52018C37.0312 2.38704 36.58 2.94427 36.8702 3.40535C39.4301 7.45147 39.8497 11.8255 38.0499 15.7262C35.8014 20.6008 30.3044 24.1858 22.572 25.8205C22.5694 25.8205 22.5694 25.823 22.5668 25.823C22.2554 25.8896 22.0284 26.1781 22.0812 26.4937C23.34 34.1865 28.9374 38.1364 38.2663 37.9195C38.4088 37.917 38.5434 37.8702 38.6542 37.7863C49.8094 29.3193 49.8542 14.2517 49.6035 9.83329ZM39.2269 16.2021C41.0056 12.3482 40.8103 8.08515 38.707 4.06368C42.1536 5.05733 45.4946 6.59096 48.1098 8.38102C45.7954 18.2214 39.6887 23.5793 28.626 25.2633C33.7457 23.2144 37.4271 20.0978 39.2269 16.2021ZM38.0156 36.731C29.7053 36.8666 24.8152 33.5849 23.4667 26.972C37.0603 26.3063 44.9166 21.6265 48.3817 11.9858C48.3869 17.7283 47.1915 29.63 38.0156 36.731Z" fill="#22B573"/>
</svg>
