<svg width="394" height="71" viewBox="0 0 394 71" fill="none" xmlns="http://www.w3.org/2000/svg">
<path d="M99.8826 21.1699C98.7592 22.098 98.1975 23.3313 98.1975 24.8577C98.1975 26.384 98.8813 27.6051 100.261 28.5087C101.641 29.4124 104.816 30.4747 109.81 31.708C114.792 32.9413 118.675 34.7852 121.423 37.2396C124.182 39.694 125.562 43.2841 125.562 47.9975C125.562 52.711 123.792 56.533 120.263 59.4636C116.734 62.3943 112.081 63.8596 106.318 63.8596C97.9899 63.8596 90.5045 60.7824 83.8373 54.6159L90.8342 46.0437C96.5001 51.0014 101.739 53.4925 106.55 53.4925C108.699 53.4925 110.396 53.0285 111.63 52.1004C112.863 51.1724 113.473 49.9146 113.473 48.3394C113.473 46.7642 112.826 45.5065 111.52 44.5784C110.213 43.6504 107.637 42.7101 103.778 41.7577C97.6602 40.3046 93.1909 38.4119 90.358 36.0796C87.525 33.7473 86.1086 30.084 86.1086 25.1019C86.1086 20.1198 87.9036 16.2611 91.4814 13.5625C95.0592 10.8516 99.5407 9.49622 104.901 9.49622C108.406 9.49622 111.923 10.0945 115.427 11.3034C118.932 12.5123 121.997 14.2097 124.598 16.4199L118.663 24.992C114.096 21.5363 109.383 19.8023 104.523 19.8023C102.545 19.7779 101.006 20.2419 99.8826 21.1699Z" fill="#F5F5F5"/>
<path d="M174.492 10.6807H186.227V63.2368H174.492V42.5636H153.587V63.2368H141.852V10.6807H153.587V32.636H174.492V10.6807Z" fill="#F5F5F5"/>
<path d="M206.668 10.6807H218.403V63.2368H206.668V10.6807Z" fill="#F5F5F5"/>
<path d="M276.747 10.6807V21.1333H250.579V31.9644H274.109V41.9653H250.579V52.8697H277.577V63.249H238.856V10.6929H276.747V10.6807Z" fill="#F5F5F5"/>
<path d="M295.552 63.2368V10.6807H307.287V52.7842H329.694V63.2368H295.552Z" fill="#F5F5F5"/>
<path d="M385.925 17.5554C390.944 22.1468 393.447 28.5209 393.447 36.6901C393.447 44.8593 391.005 51.3311 386.121 56.0934C381.236 60.8557 373.775 63.2368 363.75 63.2368H345.776V10.6807H364.349C373.727 10.6807 380.919 12.9641 385.925 17.5554ZM377.317 48.8034C380.198 46.0926 381.639 42.1606 381.639 36.9954C381.639 31.8301 380.198 27.8615 377.317 25.0774C374.435 22.2933 370.014 20.9013 364.043 20.9013H357.498V52.8575H364.947C370.32 52.8575 374.435 51.5021 377.317 48.8034Z" fill="#F5F5F5"/>
<path d="M49.0376 59.2102C42.0339 59.2837 36.0958 56.5278 32.3147 51.4496C27.5892 45.1036 26.7882 35.8033 30.0622 25.2647C30.2055 24.8054 29.9556 24.3314 29.5367 24.1697C18.7336 19.955 9.7346 23.7582 3.52094 35.1713C3.42908 35.3404 3.39233 35.5388 3.42173 35.7409C6.10782 52.5152 21.111 64.9131 34.2512 70.921C34.2549 70.921 34.2585 70.921 34.2622 70.9247C34.4974 71.0275 34.7656 71.0202 34.9677 70.932C40.0349 68.8008 45.3997 65.0821 49.6843 60.7278C50.2391 60.1619 49.8313 59.2029 49.0376 59.2102ZM5.2296 35.7592C10.8406 25.6396 18.48 22.1855 27.953 25.4889C23.5803 34.0763 21.6291 41.5724 21.9929 48.385C21.9929 48.385 21.9929 48.385 21.9929 48.3887C22.3456 55.0175 24.9693 61.0622 29.9814 66.7357C18.785 60.3603 7.58131 49.6086 5.2296 35.7592ZM34.7913 69.0543C27.6921 62.5834 24.1792 55.9729 23.7714 48.2931C23.7714 48.2931 23.7714 48.2931 23.7714 48.2895C23.5215 43.5897 24.4475 38.5188 26.5787 32.9262C26.3215 35.0537 26.237 37.1115 26.3399 39.081C26.6155 44.2585 28.1404 48.837 30.8816 52.5189C34.6186 57.5346 40.2517 60.4779 46.91 60.9336C43.2281 64.3472 38.9215 67.2317 34.7913 69.0543Z" fill="#22B573"/>
<path d="M18.4874 19.606C26.3435 18.6873 34.7987 22.6411 42.2911 30.7472C42.2947 30.7509 42.2984 30.7509 42.3021 30.7545C42.6254 31.0926 43.1472 31.122 43.5037 30.8354C49.0118 26.4259 51.6391 21.1676 51.3231 15.2039C51.1173 11.3529 49.6585 7.18232 46.9835 2.80226C46.8806 2.63323 46.7262 2.50462 46.5388 2.4348C30.6685 -3.62452 12.4317 3.16971 0.658453 11.5477C0.463703 11.6836 0.32407 11.9115 0.290999 12.1613C0.000709712 14.4616 -0.0691069 16.9456 0.0668513 19.4957C0.254253 22.9902 0.831157 26.6023 1.77184 30.0086C1.98129 30.7729 3.01751 30.9015 3.40701 30.207C6.84639 24.1073 12.2002 20.3409 18.4874 19.606ZM45.6202 3.99648C48.038 8.02379 49.3572 11.8233 49.5446 15.3031C49.8165 20.3776 47.6669 24.9193 43.1546 28.8107C32.8181 12.8999 21.3021 6.91775 6.42749 9.9419C17.543 3.43428 32.4506 -0.890662 45.6202 3.99648ZM2.97709 27.5062C1.86003 22.6081 1.51462 17.438 2.00334 12.9477C16.312 8.40227 27.479 11.7755 37.3561 23.8611C31.1462 19.2128 24.5614 17.0962 18.2779 17.8312C12.0679 18.5624 6.70308 21.9724 2.97709 27.5062Z" fill="#22B573"/>
<path d="M69.0675 14.7704C68.9829 13.1976 68.869 12.1284 68.869 12.1284C68.8433 11.8895 68.7037 11.6507 68.5236 11.5147C64.1436 8.18924 58.2386 5.40393 52.3299 3.87165C51.5619 3.67322 50.9336 4.50367 51.3378 5.19081C54.9021 11.2207 55.4863 17.7394 52.9803 23.5525C49.8496 30.8171 42.1955 36.1599 31.4291 38.5961C31.4254 38.5961 31.4254 38.5998 31.4217 38.5998C30.9881 38.699 30.6721 39.1289 30.7456 39.5993C32.4984 51.0638 40.2921 56.9505 53.2816 56.6271C53.48 56.6234 53.6674 56.5536 53.8218 56.4287C69.3541 43.8103 69.4165 21.3551 69.0675 14.7704ZM54.6192 24.2617C57.0958 18.5184 56.8239 12.1651 53.8953 6.17191C58.6942 7.65275 63.3462 9.93832 66.9877 12.606C63.7651 27.2712 55.2622 35.2559 39.8585 37.7657C46.9871 34.7121 52.1131 30.0675 54.6192 24.2617ZM52.9325 54.856C41.3614 55.0581 34.5525 50.1673 32.6748 40.3121C51.6023 39.32 62.5415 32.3457 67.3662 17.9782C67.3735 26.5362 65.7089 44.2733 52.9325 54.856Z" fill="#22B573"/>
</svg>
